<svg xmlns="http://www.w3.org/2000/svg" xmlns:xlink="http://www.w3.org/1999/xlink" fill="none" version="1.1" width="26.715246200561523" height="29.308900833129883" viewBox="0 0 26.715246200561523 29.308900833129883"><g><path d="M2.01443,23.448C0.781647,22.7398,0.0262371,21.3916,0.0209913,19.9752Q0.00525353,15.2696,0.00000750432,9.65916C-0.00261526,7.96211,0.692466,6.60866,2.13247,5.7903Q6.76722,3.15161,11.1685,0.630957C12.543,-0.155928,13.9777,-0.245109,15.4282,0.581121Q20.1705,3.27752,24.6164,5.8244C26.3712,6.83161,26.7305,8.36604,26.7148,10.3569Q26.6702,15.2592,26.7016,19.7523C26.7148,21.911,25.5974,22.9838,23.7534,24.0067Q19.5987,26.3149,15.7141,28.5995C14.2059,29.4887,12.7187,29.5674,11.1869,28.6913Q6.67017,26.1103,2.01443,23.448ZM12.5482,2.85522C9.6341,4.58899,6.66493,6.25719,3.6564,7.99096C3.08197,8.32145,2.6964,8.64145,2.69378,9.28407Q2.67804,14.6795,2.67542,20.0251C2.67527,20.4936,2.92663,20.9262,3.33378,21.1582Q7.76394,23.7051,12.5928,26.4696Q13.3036,26.8762,14.0066,26.4723Q18.6413,23.8126,23.2236,21.1713Q23.9423,20.7569,23.9423,19.949Q23.9528,14.6401,23.9607,9.30244C23.9609,8.81463,23.6996,8.36413,23.2761,8.12211Q18.6334,5.4703,14.1167,2.87358C13.6105,2.58243,13.0702,2.54309,12.5482,2.85522Z" fill="#55A8FF" fill-opacity="1"/></g></svg>