<svg xmlns="http://www.w3.org/2000/svg" xmlns:xlink="http://www.w3.org/1999/xlink" fill="none" version="1.1" width="18" height="20" viewBox="0 0 18 20"><g><path d="M9,2C7.34315,2,6,3.34315,6,5C6,6.65685,7.34315,8,9,8C10.6569,8,12,6.65685,12,5C12,3.34315,10.6569,2,9,2C9,2,9,2,9,2ZM4,5C4,2.23858,6.23858,0,9,0C11.7614,0,14,2.23858,14,5C14,7.76142,11.7614,10,9,10C6.23858,10,4,7.76142,4,5C4,5,4,5,4,5ZM1.46447,13.4645C2.40215,12.5268,3.67392,12,5,12C5,12,13,12,13,12C14.3261,12,15.5979,12.5268,16.5355,13.4645C17.4732,14.4021,18,15.6739,18,17C18,17,18,19,18,19C18,19.5523,17.5523,20,17,20C16.4477,20,16,19.5523,16,19C16,19,16,17,16,17C16,16.2044,15.6839,15.4413,15.1213,14.8787C14.5587,14.3161,13.7956,14,13,14C13,14,5,14,5,14C4.20435,14,3.44129,14.3161,2.87868,14.8787C2.31607,15.4413,2,16.2043,2,17C2,17,2,19,2,19C2,19.5523,1.55228,20,1,20C0.447715,20,0,19.5523,0,19C0,19,0,17,0,17C0,15.6739,0.526784,14.4021,1.46447,13.4645C1.46447,13.4645,1.46447,13.4645,1.46447,13.4645Z" fill-rule="evenodd" fill="#767676" fill-opacity="1"/></g></svg>